<?xml version="1.0" encoding="UTF-8"?>
<svg data-bbox="65.615 203.485 465.155 442.076" viewBox="0 0 595.28 841.89" xmlns="http://www.w3.org/2000/svg" data-type="shape">
    <g>
        <path d="M491.72 513.56c21.46-.1 38.95 17.21 39.05 38.68.1 21.46-17.21 38.95-38.68 39.05-21.46.1-38.95-17.21-39.05-38.68a38.795 38.795 0 0 1 6.22-21.28l-38.64-32.2c-14.97 10.21-35.05 8.55-48.15-3.98l-37.5 21.64a38.043 38.043 0 0 1 2.18 12.23c-.02 21.34-17.34 38.62-38.68 38.6-7.7-.01-15.22-2.32-21.6-6.63l-35.74 29.79a38.064 38.064 0 0 1 3.28 15.52c.18 21.5-17.1 39.08-38.6 39.26-21.5.18-39.08-17.1-39.26-38.6-.18-21.5 17.1-39.08 38.6-39.26a38.938 38.938 0 0 1 26.9 10.47l34-28.29a37.124 37.124 0 0 1-4.07-32.95l-37.54-21.64c-15.43 14.64-39.8 14.01-54.44-1.42-5-5.27-8.41-11.84-9.83-18.96h-17c-4.27 20.91-24.68 34.4-45.59 30.13s-34.4-24.68-30.13-45.59c4.27-20.91 24.68-34.4 45.59-30.13a38.643 38.643 0 0 1 30.13 30.13h17a38.787 38.787 0 0 1 30.14-30.14v-40.19c-20.91-4.28-34.39-24.69-30.11-45.6a38.632 38.632 0 0 1 5.8-13.83l-44.98-51.4c-19.68 8.97-42.9.28-51.87-19.4-8.97-19.68-.28-42.9 19.4-51.87 19.68-8.97 42.9-.28 51.87 19.4a39.152 39.152 0 0 1-6.83 42.76l43.49 49.71c17.04-11.17 39.85-7.02 51.86 9.44l33.02-19.07c-1.35-3.9-2.07-7.99-2.11-12.11 0-21.34 17.3-38.64 38.64-38.64s38.64 17.3 38.64 38.64c-.05 4.15-.78 8.26-2.16 12.18l33 19.06c12.1-16.62 35.15-20.75 52.26-9.34l39.26-39.26c-11.81-17.85-6.92-41.9 10.93-53.71 17.85-11.81 41.9-6.92 53.71 10.93 11.81 17.85 6.92 41.9-10.93 53.71a38.768 38.768 0 0 1-42.78 0l-39.26 39.26c11.78 17.74 6.94 41.67-10.8 53.45a38.615 38.615 0 0 1-13.83 5.7v40.19c20.86 4.08 34.46 24.3 30.38 45.16-.95 4.83-2.81 9.44-5.49 13.57l38.64 32.2a38.536 38.536 0 0 1 21.66-6.69zM105.3 444c-12.8 0-23.18 10.38-23.18 23.18s10.38 23.18 23.18 23.18 23.18-10.38 23.18-23.18S118.11 444 105.3 444zm386.42 131.38c12.8 0 23.18-10.38 23.18-23.18 0-12.8-10.38-23.18-23.18-23.18-12.8 0-23.18 10.38-23.18 23.18-.01 12.8 10.37 23.18 23.18 23.18zM298.51 552.2c12.8 0 23.18-10.38 23.18-23.18s-10.38-23.18-23.18-23.18-23.18 10.38-23.18 23.18 10.38 23.18 23.18 23.18zm-92.74 30.91c-12.8 0-23.18 10.38-23.18 23.18 0 12.8 10.38 23.18 23.18 23.18s23.18-10.38 23.18-23.18c.01-12.8-10.37-23.18-23.18-23.18zm-30.91-115.92c0 12.8 10.38 23.18 23.18 23.18s23.18-10.38 23.18-23.18S210.85 444 198.04 444s-23.18 10.38-23.18 23.19zM105.3 219.88c-12.8 0-23.18 10.38-23.18 23.18 0 12.8 10.38 23.18 23.18 23.18s23.18-10.38 23.18-23.18c.01-12.8-10.37-23.18-23.18-23.18zm92.74 108.2c-12.8 0-23.18 10.38-23.18 23.18 0 12.8 10.38 23.18 23.18 23.18s23.18-10.38 23.18-23.18c.01-12.8-10.37-23.18-23.18-23.18zm100.47-54.1c-12.8 0-23.18 10.38-23.18 23.18 0 12.8 10.38 23.18 23.18 23.18s23.18-10.38 23.18-23.18c.01-12.8-10.37-23.18-23.18-23.18zm28.75 48.75c-13.84 15.88-37.93 17.53-53.81 3.69a37.623 37.623 0 0 1-3.73-3.74l-34.16 19.71c.72 2.9 1.1 5.88 1.13 8.87-.02 18.36-12.93 34.17-30.91 37.87v40.19c17.98 3.7 30.89 19.51 30.91 37.87 0 5.3-1.11 10.53-3.24 15.38l36.27 20.94c13.8-15.91 37.89-17.61 53.79-3.81a36.876 36.876 0 0 1 3.75 3.75l36.28-20.94c-8.49-19.53.45-42.24 19.98-50.74a38.17 38.17 0 0 1 7.58-2.4v-40.28c-20.7-4.12-34.15-24.25-30.02-44.95.11-.56.23-1.11.37-1.66l-34.19-19.75zm164.46-41.02c12.8 0 23.18-10.38 23.18-23.18s-10.38-23.18-23.18-23.18c-12.8 0-23.18 10.38-23.18 23.18s10.37 23.18 23.18 23.18zm-69.56 69.55c0-12.8-10.38-23.18-23.18-23.18-12.8 0-23.18 10.38-23.18 23.18 0 12.8 10.38 23.18 23.18 23.18 12.8.01 23.18-10.37 23.18-23.18zM398.98 444c-12.8 0-23.18 10.38-23.18 23.18s10.38 23.18 23.18 23.18c12.8 0 23.18-10.38 23.18-23.18S411.78 444 398.98 444z"/>
    </g>
</svg>
